<svg width="66" height="61" viewBox="0 0 66 61" fill="none" xmlns="http://www.w3.org/2000/svg">
<path d="M30.6223 59.897C47.5346 59.897 61.2447 46.4887 61.2447 29.9485C61.2447 13.4084 47.5346 0 30.6223 0C13.71 0 0 13.4084 0 29.9485C0 46.4887 13.71 59.897 30.6223 59.897Z" fill="#FFA5BD"/>
<path d="M12.9842 23.6705C12.9199 23.7828 12.8612 23.8952 12.8039 24.0076C12.5744 24.4647 12.3943 24.944 12.2662 25.4377C12.0273 26.3579 11.9997 27.3127 11.9549 28.2554C11.9549 28.2981 11.9549 28.3386 11.948 28.3801C11.9342 28.6464 11.9181 28.9138 11.894 29.1789C12.0302 29.3414 12.1809 29.4918 12.3443 29.6283C12.3685 29.4395 12.3869 29.2519 12.4006 29.0665C12.4914 28.0094 12.4684 26.9319 12.6556 25.8882C12.7718 25.2451 12.9778 24.6205 13.2679 24.0322C13.3231 23.9199 13.3828 23.8075 13.4449 23.6952C13.2897 23.6896 13.1381 23.6805 12.9842 23.6705ZM52.9332 37.8432C52.6392 37.0874 52.3409 36.3317 52.0384 35.576C51.4257 34.0398 50.7916 32.5122 50.136 30.9933C49.4897 29.4856 48.8272 27.985 48.1486 26.4915C47.4859 25.0411 46.761 23.611 46.1762 22.1291C45.6067 20.6696 45.2793 19.1305 45.2068 17.57C45.1264 16.0488 45.1757 14.5253 45.0551 13.0053C44.9402 11.6111 44.7105 10.1124 43.965 8.89C43.6545 8.35101 43.186 7.91544 42.6197 7.63958C42.0086 7.36096 41.2941 7.36208 40.6554 7.5452C39.2401 7.95078 38.3395 9.11807 37.5537 10.2685C36.6126 11.6542 35.6729 13.0417 34.7347 14.431C34.3315 15.0264 33.9501 15.6578 33.4389 16.1757C32.9325 16.6758 32.2673 16.9927 31.5526 17.0746C30.8284 17.1593 30.0977 17.1769 29.37 17.1273C28.6486 17.0959 27.9134 17.0004 27.3401 16.5308C26.8106 16.096 26.4797 15.4612 26.1501 14.8815C25.7434 14.1693 25.3494 13.4509 24.968 12.7266C24.5866 12.0024 24.2166 11.2755 23.8583 10.546C23.5608 9.93596 23.2839 9.31019 22.8967 8.74845C22.5605 8.22451 22.0912 7.79484 21.5344 7.50139C21.059 7.27386 20.5328 7.16685 20.0042 7.19019C18.9577 7.23513 17.8801 7.73956 17.2805 8.5979C16.9003 9.14391 16.7567 9.79216 16.7234 10.4438C16.6843 11.2302 16.744 12.0369 16.7705 12.8289C16.8241 14.5142 16.8785 16.1993 16.9336 17.8845C16.9577 18.6496 16.9818 19.417 17.006 20.1809C15.6564 20.7154 14.4809 21.5989 13.6056 22.7368C13.5401 22.8211 13.4758 22.9076 13.415 22.9953L13.9021 22.974C13.9641 22.8863 14.0284 22.8009 14.095 22.7166C14.3633 22.3727 14.6616 22.0521 14.9865 21.7584C15.5946 21.2097 16.2939 20.7663 17.0542 20.4472C17.1818 20.5685 17.5206 20.4899 17.5137 20.3011C17.4616 18.6587 17.4091 17.0157 17.3563 15.3724C17.331 14.5569 17.3051 13.7416 17.2782 12.9267C17.2529 12.1402 17.1989 11.3538 17.2197 10.5674C17.2391 9.92473 17.3345 9.25065 17.7274 8.71474C18.0287 8.30847 18.4384 7.99096 18.9117 7.79686C19.3812 7.59037 19.9011 7.51875 20.4106 7.59037C20.9202 7.66198 21.3983 7.87388 21.7894 8.20131C22.2845 8.62711 22.6268 9.20233 22.9232 9.77419C23.262 10.4236 23.5665 11.0909 23.8997 11.7436C24.5992 13.1221 25.3045 14.5253 26.1363 15.8409C26.4809 16.3858 26.9083 16.8745 27.5068 17.1577C28.1317 17.4531 28.8461 17.4947 29.5274 17.506C30.8945 17.543 32.3992 17.5531 33.5147 16.6532C34.0443 16.2229 34.4337 15.6646 34.8094 15.1085C35.2689 14.4344 35.7249 13.7602 36.1775 13.0862L37.5479 11.0639C37.9639 10.4516 38.3636 9.82811 38.8426 9.25626C39.664 8.28557 41.0437 7.35983 42.3624 7.99572C43.5733 8.58105 44.0385 10.1056 44.2934 11.2954C44.9207 14.2164 44.367 17.2498 45.0149 20.1709C45.3469 21.6707 45.9959 23.0773 46.6449 24.4659C47.319 25.91 47.9798 27.3603 48.6278 28.8171C49.9296 31.7554 51.1626 34.7203 52.3267 37.7117C52.4692 38.0768 52.6266 38.4408 52.7437 38.815C52.8586 39.1678 52.8793 39.5227 52.6645 39.8429C52.483 40.1137 52.2049 40.3148 51.9488 40.517C51.6329 40.7564 51.317 40.9956 50.9965 41.2326C49.7213 42.1764 48.4217 43.089 47.0976 43.9706C46.5151 44.3582 45.9248 44.7368 45.3331 45.1131C45.2818 45.1245 45.2331 45.1451 45.1895 45.1738C42.9658 46.6109 40.6288 47.8728 38.2005 48.9475C35.7471 50.0407 33.2045 50.9309 30.5992 51.609C29.2273 51.9752 27.8215 52.207 26.4028 52.3012C24.955 52.3783 23.5032 52.3407 22.0616 52.1888C20.6509 52.0518 19.2449 51.8428 17.8504 51.5933C16.8635 51.4181 15.7194 51.1676 15.0347 50.389C14.1697 49.4059 14.4924 48.0668 14.7246 46.9175C14.8394 46.3478 14.8004 45.84 14.4638 45.3525C14.1973 44.9671 13.8354 44.657 13.5769 44.266C13.4501 44.0774 13.3713 43.8616 13.3472 43.6369C13.3265 43.4481 13.0209 43.5178 12.9267 43.5808C12.5606 43.8259 12.2229 44.1091 11.9192 44.4256C11.487 43.3185 11.3622 42.1191 11.5574 40.9495C11.585 40.7855 11.3598 40.7642 11.2553 40.7855L10.1008 41.0102C10.0208 39.485 10.4361 37.9741 11.2875 36.6939C11.3759 36.5601 11.3035 36.4601 11.16 36.4242C10.7986 36.3358 10.4256 36.3017 10.0537 36.3231C10.2228 35.8604 10.4546 35.4221 10.743 35.0199C10.8509 34.8749 10.7188 34.7311 10.5511 34.7491L8.69473 34.9592L11.809 31.6764C11.8324 31.6529 11.847 31.6224 11.8506 31.5898C11.8541 31.5572 11.8463 31.5243 11.8285 31.4966C11.8401 31.4837 11.8497 31.4693 11.8572 31.454C11.9391 31.2738 12.0103 31.0892 12.071 30.9011C12.1123 30.7742 12.1479 30.6473 12.1788 30.5181C12.0282 30.4295 11.8874 30.326 11.7585 30.2091C11.7298 30.3641 11.6952 30.5203 11.654 30.6742C11.5778 30.9626 11.4779 31.2443 11.3552 31.5169C11.3509 31.5284 11.3509 31.5412 11.3552 31.5528C10.2233 32.7437 9.09296 33.935 7.96412 35.1265C7.83201 35.2636 8.00662 35.4131 8.15596 35.3973L10.1088 35.1726C9.84 35.5882 9.62835 36.0365 9.47933 36.5062C9.43338 36.6444 9.55629 36.75 9.69989 36.7309C10.0399 36.6844 10.3851 36.6897 10.7234 36.7466C9.87265 38.0978 9.48024 39.6773 9.60225 41.2596C9.61603 41.4202 9.76651 41.4518 9.90666 41.4236L11.0175 41.2091C10.8482 42.4707 11.0378 43.7535 11.5655 44.9166C11.647 45.0929 11.9101 45.066 12.0249 44.93C12.2891 44.6143 12.5867 44.3269 12.9129 44.0728C13.1967 44.8727 14.149 45.3334 14.2731 46.2074C14.3236 46.5524 14.2225 46.9096 14.1524 47.2466C14.0824 47.5837 14.0226 47.8893 13.9859 48.2162C13.9181 48.8251 13.9388 49.4677 14.2041 50.0351C14.6636 51.0047 15.6804 51.4956 16.6855 51.754C17.2702 51.9068 17.8687 52.0045 18.466 52.1034C19.2012 52.2248 19.9388 52.3348 20.6774 52.4293C23.6137 52.8023 26.5842 52.8707 29.4895 52.2517C32.196 51.6765 34.8507 50.7609 37.3963 49.7003C39.9232 48.6451 42.3581 47.391 44.6772 45.9502C44.9 45.8109 45.1217 45.6692 45.3411 45.5288C45.3853 45.5156 45.4273 45.4967 45.4664 45.4727C46.8579 44.5963 48.2253 43.6848 49.5686 42.7381C50.2302 42.273 50.8842 41.7986 51.5307 41.3146C51.8476 41.0799 52.1659 40.8439 52.4772 40.599C52.7334 40.4117 52.9558 40.1839 53.1355 39.9249C53.5662 39.2407 53.1906 38.5104 52.9332 37.8432ZM12.3443 29.6283C12.3685 29.4395 12.3869 29.2519 12.4006 29.0665C12.4914 28.0094 12.4684 26.9319 12.6556 25.8882C12.7718 25.2451 12.9778 24.6205 13.2679 24.0322C13.3231 23.9199 13.3828 23.8075 13.4449 23.6952C13.2897 23.6952 13.1381 23.6828 12.9854 23.6727C12.921 23.785 12.8624 23.8974 12.805 24.0097C12.5756 24.467 12.3955 24.9463 12.2674 25.4399C12.0284 26.36 12.0008 27.315 11.956 28.2577C11.956 28.3003 11.956 28.3407 11.9491 28.3823C11.9354 28.6486 11.9192 28.916 11.8951 29.1812C12.031 29.3433 12.1813 29.4921 12.3443 29.6283ZM12.9842 23.675C12.9199 23.7873 12.8612 23.8997 12.8039 24.012C12.5744 24.4692 12.3943 24.9485 12.2662 25.4422C12.0273 26.3623 11.9997 27.3173 11.9549 28.2598C11.9549 28.3025 11.9549 28.343 11.948 28.3845C11.9342 28.6508 11.9181 28.9182 11.894 29.1834C12.0302 29.346 12.1809 29.4963 12.3443 29.6328C12.3685 29.444 12.3869 29.2564 12.4006 29.071C12.4914 28.0138 12.4684 26.9365 12.6556 25.8927C12.7718 25.2495 12.9778 24.625 13.2679 24.0367C13.3231 23.9244 13.3828 23.812 13.4449 23.6996C13.2897 23.6896 13.1381 23.6805 12.9842 23.6705V23.675Z" fill="black"/>
<path d="M12.5117 23.6402C12.2177 23.5347 11.8156 23.6649 11.6065 23.865C11.2826 24.1694 11.2481 24.7379 11.1792 25.1468C11.0229 26.0513 10.9575 27.0039 11.2102 27.8971C11.3437 28.3684 11.5787 28.8062 11.8994 29.1813C11.9235 28.9161 11.9396 28.6488 11.9534 28.3825C11.6169 27.6994 11.5238 26.9219 11.5548 26.176C11.5779 25.7334 11.6327 25.2931 11.7191 24.8581C11.7514 24.6517 11.7944 24.447 11.8477 24.2447C11.8759 24.1241 11.927 24.0098 11.9983 23.9077C12.0031 23.9034 12.0073 23.8984 12.0109 23.893C12.0278 23.9141 12.0491 23.9314 12.0736 23.9436C12.0979 23.9558 12.1248 23.9627 12.1522 23.9638C12.3704 23.9807 12.5864 23.9964 12.8047 24.0077C12.8621 23.8953 12.9195 23.783 12.985 23.6706C12.8273 23.6616 12.6695 23.6515 12.5117 23.6402ZM12.5117 23.6402C12.2177 23.5347 11.8156 23.6649 11.6065 23.865C11.2826 24.1694 11.2481 24.7379 11.1792 25.1468C11.0229 26.0513 10.9575 27.0039 11.2102 27.8971C11.3437 28.3684 11.5787 28.8062 11.8994 29.1813C11.9235 28.9161 11.9396 28.6488 11.9534 28.3825C11.6169 27.6994 11.5238 26.9219 11.5548 26.176C11.5779 25.7334 11.6327 25.2931 11.7191 24.8581C11.7514 24.6517 11.7944 24.447 11.8477 24.2447C11.8759 24.1241 11.927 24.0098 11.9983 23.9077C12.0031 23.9034 12.0073 23.8984 12.0109 23.893C12.0278 23.9141 12.0491 23.9314 12.0736 23.9436C12.0979 23.9558 12.1248 23.9627 12.1522 23.9638C12.3704 23.9807 12.5864 23.9964 12.8047 24.0077C12.8621 23.8953 12.9195 23.783 12.985 23.6706C12.8273 23.6616 12.6695 23.6515 12.5117 23.6402ZM39.3029 24.6772C39.2891 24.256 39.2937 23.7346 39.0398 23.3728C38.8009 23.0359 38.3632 22.8662 37.9807 22.7324C37.5237 22.5751 37.0531 22.4585 36.5746 22.3842C35.5707 22.2202 34.5424 22.1775 33.527 22.1326C32.4456 22.0831 31.3635 22.0603 30.2806 22.064C29.2146 22.064 28.1451 22.0854 27.0813 22.1561C26.5918 22.1806 26.1057 22.2499 25.6293 22.3628C25.1702 22.4926 24.7275 22.6723 24.3093 22.8987C23.8727 23.1425 23.3786 23.2707 22.8757 23.2706C22.36 23.2706 21.85 23.1684 21.3411 23.0954C20.2934 22.9456 19.2419 22.8377 18.1865 22.7719C16.8218 22.6853 15.4533 22.6685 14.0867 22.7213C13.9223 22.7213 13.7604 22.7324 13.5973 22.7415C12.7598 22.7842 11.9235 22.8539 11.0919 22.9425C11.0571 22.9228 11.0172 22.9131 10.977 22.9145C10.1729 22.8909 9.66741 23.547 9.64444 24.2796C9.65231 24.7148 9.69068 25.1492 9.75931 25.5794C9.80527 26.0007 9.84891 26.422 9.90291 26.8433C10.0637 28.1387 10.3417 29.634 11.4376 30.5059C11.5078 30.5631 11.5819 30.6157 11.6594 30.6631C11.7915 30.7495 11.9311 30.8247 12.0764 30.8878C12.5825 31.0989 13.1128 31.2498 13.6559 31.3373C14.4026 31.4855 15.1872 31.5866 15.9454 31.4496C16.3175 31.3851 16.673 31.2491 16.9911 31.0492C17.3091 30.8494 17.5836 30.5899 17.7983 30.2856C18.3486 29.5397 18.847 28.751 19.3411 27.9691C19.835 27.1871 20.2841 26.3962 20.7621 25.6097C20.8103 25.53 20.847 25.4559 20.9459 25.4345C21.0517 25.4238 21.1583 25.4238 21.264 25.4345C21.5107 25.4435 21.7565 25.4702 21.9992 25.5143C22.3692 25.5816 22.9286 25.6626 23.1893 25.9636C23.4501 26.2647 23.3801 26.6961 23.3904 27.0445C23.4034 27.4754 23.4451 27.9051 23.5156 28.3308C23.6474 29.1725 23.9326 29.9841 24.3577 30.7272C24.7297 31.3724 25.2314 31.9372 25.8327 32.3877C26.4775 32.8484 27.2212 33.1591 28.0072 33.2966C28.867 33.44 29.7361 33.5229 30.608 33.5449C31.4717 33.5989 32.3388 33.5673 33.1961 33.4505C34.7665 33.2101 36.2024 32.5113 37.1914 31.2744C37.635 30.7205 37.9706 30.0919 38.1817 29.4194C38.2878 29.0803 38.3579 28.7312 38.3908 28.378C38.4287 27.9836 38.3827 27.5915 38.4103 27.1994C38.4287 26.9096 38.5436 26.3523 38.9192 26.3175C38.9985 26.3108 39.1904 26.2569 39.2064 26.1602C39.2853 25.6698 39.3175 25.1735 39.3029 24.6772ZM17.9499 29.3823C17.9339 29.3895 17.9188 29.3986 17.9052 29.4093C16.6414 30.38 14.9424 30.6867 13.4892 29.9239C13.0745 29.707 12.7051 29.4159 12.4003 29.0656C12.228 28.8646 12.0807 28.6444 11.9614 28.4094C11.9557 28.4005 11.9523 28.3903 11.9476 28.3814C11.6111 27.6983 11.5181 26.9209 11.5491 26.1749C11.5721 25.7323 11.6271 25.292 11.7133 24.857C11.7476 24.6508 11.7924 24.4464 11.8477 24.2447C11.8759 24.1241 11.927 24.0098 11.9983 23.9077C12.0031 23.9034 12.0073 23.8984 12.0109 23.893C12.0278 23.9141 12.0491 23.9314 12.0736 23.9436C12.0979 23.9558 12.1248 23.9627 12.1522 23.9638C12.3704 23.9807 12.5864 23.9964 12.8047 24.0077C12.9586 24.0166 13.1148 24.0245 13.2642 24.0302C14.3393 24.0805 15.4164 24.0752 16.491 24.0143C16.993 23.9863 17.5834 23.9144 18.0395 24.1672C18.6001 24.4784 18.5691 25.1906 18.6035 25.7401C18.6541 26.5512 18.6713 27.3635 18.661 28.1758C18.6593 28.2039 18.6677 28.2318 18.6851 28.2544C18.4462 28.6342 18.2003 29.0082 17.9499 29.3823ZM38.7136 26.1243C38.4905 26.1949 38.2952 26.331 38.1542 26.5141C37.9348 26.8062 37.8957 27.1635 37.8957 27.5174C37.9096 27.8971 37.8978 28.2773 37.86 28.6554C37.812 28.9965 37.7301 29.3322 37.6154 29.6576C37.1559 30.9732 36.168 32.1438 34.8675 32.7326C33.3214 33.4336 31.5362 33.3437 29.8808 33.2213C29.0284 33.1595 28.1577 33.0797 27.3535 32.7719C26.6556 32.4977 26.0337 32.0662 25.5385 31.5125C24.4346 30.3048 23.9739 28.6869 23.897 27.0961C23.8774 26.7433 23.9326 26.3389 23.7959 26.0041C23.6592 25.6692 23.3364 25.5356 23.0067 25.4345C22.6 25.3074 22.18 25.2256 21.7546 25.1906C21.3893 25.1615 20.9389 25.1109 20.6058 25.2896C20.2726 25.4682 20.1153 25.9164 19.9372 26.2208C19.7152 26.5954 19.4904 26.9699 19.263 27.3444L19.1722 27.4859C19.1722 26.9432 19.155 26.3996 19.1239 25.858C19.093 25.2705 19.1446 24.5098 18.6725 24.0695C18.2761 23.701 17.6926 23.6459 17.1722 23.6481C16.4508 23.6481 15.7294 23.7189 15.0056 23.7245C14.4852 23.7245 13.9637 23.7178 13.4457 23.6919C13.2906 23.6919 13.1389 23.6785 12.9862 23.6683C12.8334 23.6583 12.6714 23.6492 12.514 23.6381C12.22 23.5324 11.8178 23.6627 11.6088 23.8627C11.2848 24.1672 11.2504 24.7356 11.1815 25.1446C11.0252 26.049 10.9598 27.0018 11.2125 27.8948C11.346 28.3661 11.581 28.804 11.9017 29.179C12.0379 29.3416 12.1886 29.492 12.3521 29.6284C13.1712 30.3033 14.2251 30.643 15.2939 30.5766C16.1109 30.5245 16.9046 30.2901 17.6145 29.8914C17.2319 30.453 16.8218 31.007 16.1096 31.1788C15.3973 31.3507 14.6162 31.2204 13.9017 31.0754C13.3044 30.9564 12.7001 30.816 12.1786 30.507C12.0279 30.4184 11.887 30.315 11.7581 30.198C11.7445 30.1884 11.7317 30.1775 11.7202 30.1654C11.2355 29.7104 10.9414 29.106 10.7484 28.4802C10.5608 27.832 10.435 27.1682 10.3727 26.4973C10.3245 26.0793 10.2797 25.6592 10.2303 25.2401C10.182 24.8019 10.0901 24.3414 10.174 23.8975C10.2223 23.6324 10.3969 23.2145 10.7116 23.1718C10.7684 23.2045 10.8357 23.215 10.9 23.201C11.734 23.1051 12.5703 23.0365 13.4089 22.9954L13.8959 22.9741C14.9788 22.9336 16.0626 22.9362 17.147 22.9819C18.1934 23.0268 19.2411 23.1145 20.2808 23.2426C21.2307 23.3549 22.2083 23.6032 23.1699 23.5032C24.1313 23.4032 24.8746 22.7662 25.8004 22.5538C26.7677 22.3292 27.8062 22.3584 28.7941 22.3359C30.8931 22.2783 32.9938 22.3305 35.087 22.4921C36.1093 22.5763 37.2524 22.6999 38.1622 23.2044C38.6677 23.4852 38.7365 23.9593 38.7779 24.4818C38.8178 25.0295 38.7962 25.5811 38.7136 26.1243ZM12.5117 23.6402C12.2177 23.5347 11.8156 23.6649 11.6065 23.865C11.2826 24.1694 11.2481 24.7379 11.1792 25.1468C11.0229 26.0513 10.9575 27.0039 11.2102 27.8971C11.3437 28.3684 11.5787 28.8062 11.8994 29.1813C11.9235 28.9161 11.9396 28.6488 11.9534 28.3825C11.6169 27.6994 11.5238 26.923 11.5548 26.1771C11.5779 25.7345 11.6327 25.2931 11.7191 24.8581C11.7514 24.6517 11.7944 24.447 11.8477 24.2447C11.8759 24.1241 11.927 24.0098 11.9983 23.9077C12.0031 23.9034 12.0073 23.8984 12.0109 23.893C12.0278 23.9141 12.0491 23.9314 12.0736 23.9436C12.0979 23.9558 12.1248 23.9627 12.1522 23.9638C12.3704 23.9807 12.5864 23.9964 12.8047 24.0077C12.8621 23.8953 12.9195 23.783 12.985 23.6706C12.8273 23.6616 12.6695 23.6515 12.5117 23.6402Z" fill="black"/>
<path d="M37.0846 24.796C36.6711 23.7849 35.3121 23.4669 34.3276 23.3973C33.6602 23.3658 32.9914 23.3681 32.3242 23.404L30.0348 23.4794C28.6562 23.5232 27.1559 23.4433 25.8912 24.0714C25.8583 24.083 25.829 24.1027 25.8058 24.1284C25.7827 24.1541 25.7666 24.1851 25.7591 24.2186C25.0238 24.8208 24.84 25.8331 24.9251 26.7599C25.033 27.9451 25.2972 29.218 25.9256 30.2494C26.2013 30.716 26.5774 31.1185 27.0279 31.4288C27.4784 31.7392 27.9924 31.9501 28.5345 32.0469C29.1674 32.1562 29.8081 32.2166 30.4506 32.2279C31.1075 32.2594 31.766 32.23 32.4172 32.1402C33.566 31.966 34.6964 31.5414 35.5499 30.7527C36.339 30.0269 36.7836 29.0484 37.0065 28.0249C37.1169 27.4974 37.1823 26.962 37.2018 26.424C37.2213 25.9026 37.288 25.2892 37.0846 24.796ZM36.6389 27.1273C36.5401 28.0732 36.3081 29.0371 35.7739 29.8438C35.2076 30.6988 34.315 31.2718 33.3282 31.5695C32.2104 31.9065 31.0238 31.9065 29.8693 31.8167C29.2949 31.7729 28.7125 31.7234 28.1669 31.5414C27.6803 31.3734 27.244 31.0897 26.8975 30.7156C26.0531 29.8168 25.735 28.6035 25.5339 27.4272C25.3559 26.3813 25.2123 24.8365 26.3805 24.259L26.415 24.2377C27.3512 23.877 28.4012 23.9006 29.3949 23.8669C30.6091 23.8276 31.8222 23.7815 33.0376 23.7545C34.0474 23.7276 35.1639 23.7377 36.0312 24.3163C36.2349 24.4461 36.4057 24.6194 36.531 24.823C36.6583 25.0798 36.718 25.3637 36.7043 25.6487C36.7123 26.1425 36.6904 26.6361 36.6389 27.1273Z" fill="black"/>
<path d="M21.4269 32.1315C20.8399 31.854 20.1519 31.8608 19.5154 31.8844C18.6249 31.9173 17.7372 32.0029 16.8571 32.1406C16.1323 32.2528 15.3328 32.3652 14.7825 32.8821C14.5605 33.1029 14.3918 33.3696 14.289 33.6626C14.1864 33.9557 14.1519 34.2674 14.1887 34.5751C14.3459 36.2086 16.0025 37.0298 17.4052 37.5861C17.4095 37.6128 17.4219 37.6378 17.4407 37.6578C17.4594 37.6777 17.4839 37.6919 17.5109 37.6983C19.0801 38.1365 20.3563 36.5951 21.2018 35.5323C21.6487 34.9705 22.1311 34.356 22.2494 33.637C22.3021 33.3324 22.2499 33.0193 22.101 32.7469C21.9522 32.4745 21.7151 32.258 21.4269 32.1315ZM21.2122 34.802C20.7757 35.4279 20.2812 36.0132 19.7348 36.5502C19.3006 36.9703 18.7009 37.4355 18.0577 37.3996C18.0375 37.3845 18.0155 37.3721 17.9922 37.3624C16.8066 36.9062 15.4327 36.3682 14.879 35.1481C14.7584 34.8952 14.6932 34.6203 14.6876 34.3413C14.6821 34.0624 14.7364 33.7853 14.8468 33.528C15.1169 32.9371 15.6889 32.7213 16.3 32.6022C17.0276 32.4659 17.7624 32.3699 18.5011 32.3146C19.1478 32.2641 19.8245 32.1967 20.4723 32.2855C20.9801 32.3551 21.5189 32.5652 21.6969 33.0797C21.9026 33.6774 21.5499 34.3268 21.2122 34.8054V34.802Z" fill="black"/>
<path d="M28.6083 38.6476C27.8009 39.2381 26.8657 39.6397 25.8747 39.8215C24.8837 40.0031 23.8634 39.9602 22.8921 39.6957C22.165 39.5015 21.463 39.2183 20.7209 39.0711C19.3982 38.8178 18.0293 38.9346 16.7715 39.4081C16.4648 39.5236 16.1669 39.6603 15.88 39.8171C15.601 39.9676 15.2816 40.1328 15.0656 40.3677C14.6061 40.8631 15.223 41.4978 15.7009 41.708C16.0404 41.8406 16.4036 41.9059 16.7692 41.9C17.2126 41.9102 17.6572 41.9 18.1007 41.9056L20.8944 41.9124C20.999 41.9124 21.1735 41.8809 21.2241 41.7742C21.2747 41.6675 21.1839 41.6135 21.0839 41.6135L18.7635 41.608H17.6033C17.2543 41.6166 16.9051 41.6035 16.5579 41.5686C16.2235 41.5364 15.9117 41.39 15.6768 41.1551C15.5684 41.0497 15.4841 40.923 15.4298 40.7834C15.3655 40.5912 15.4504 40.4575 15.6044 40.3407C16.1111 39.9747 16.679 39.6974 17.2827 39.5217C18.5399 39.1412 19.8856 39.1436 21.1414 39.5283C21.8157 39.7261 22.4763 39.9778 23.1723 40.1035C23.7722 40.2115 24.3834 40.2462 24.992 40.2069C26.4136 40.1174 27.7793 39.6317 28.9276 38.8071C29.1942 38.6116 28.776 38.5217 28.6083 38.6476Z" fill="black"/>
<path d="M44.3878 37.6893C44.2661 38.5971 44.1258 39.5022 43.9673 40.4047C43.9301 40.3379 43.8971 40.2688 43.8686 40.198C43.8042 40.0373 43.5044 40.1205 43.409 40.2127C43.2264 40.4013 43.1885 40.6205 43.1862 40.8733C43.1812 41.2045 43.1289 41.5334 43.0311 41.8506L42.5452 43.5359C42.3385 43.3289 42.1548 43.101 41.9972 42.8561C41.8985 42.7023 41.4137 42.8685 41.5377 43.0562C41.7799 43.4364 42.0841 43.7753 42.4383 44.0594C42.5704 44.165 42.8726 44.1055 42.9219 43.9324C43.1119 43.2757 43.3033 42.618 43.4963 41.9596C43.5837 41.6552 43.6917 41.3507 43.6985 41.0316C43.6985 40.9833 43.6985 40.9305 43.6985 40.8765C43.7566 40.9474 43.8199 41.0139 43.888 41.0755C44.003 41.1822 44.3395 41.1216 44.3717 40.9485C44.5731 39.8482 44.7481 38.7446 44.8967 37.6376C44.9197 37.423 44.4119 37.5039 44.3878 37.6893Z" fill="black"/>
<path d="M48.461 34.2794C47.6582 33.4183 47.0606 32.3938 46.7114 31.2797C46.6655 31.1326 46.1658 31.2685 46.2105 31.4112C46.5296 32.4243 47.0509 33.3656 47.7442 34.1806C47.5822 34.1693 47.4202 34.1637 47.2582 34.1659C46.9872 34.1659 46.569 34.1379 46.3634 34.3491C46.2692 34.4434 46.276 34.5636 46.2727 34.6861C46.2727 34.8782 46.2646 35.0704 46.26 35.2624C46.26 35.5186 46.2474 35.7747 46.2416 36.0309C45.4 35.6574 44.5046 35.4126 43.5868 35.3051C43.461 35.2894 43.3338 35.3228 43.233 35.3984C43.163 35.4602 43.163 35.532 43.2732 35.5445C44.3245 35.6683 45.344 35.9783 46.2818 36.4589C46.3967 36.5173 46.731 36.4343 46.7344 36.2848C46.7467 35.7485 46.759 35.213 46.7712 34.6783C46.7712 34.5985 46.7816 34.5164 46.7792 34.4366C46.7792 34.4243 46.7551 34.4221 46.7448 34.4221H46.8057C46.9432 34.4115 47.0814 34.4092 47.2192 34.4153C47.504 34.4218 47.7882 34.4481 48.0693 34.494C48.1417 34.5007 48.5851 34.412 48.461 34.2794Z" fill="black"/>
</svg>
